<?xml version="1.0" encoding="iso-8859-1"?>
<!-- Generator: Adobe Illustrator 19.0.0, SVG Export Plug-In . SVG Version: 6.00 Build 0)  -->
<svg version="1.1" id="Layer_1" xmlns="http://www.w3.org/2000/svg" xmlns:xlink="http://www.w3.org/1999/xlink" x="0px" y="0px"
	 viewBox="0 0 512 512" style="enable-background:new 0 0 512 512;" xml:space="preserve">
<g>
	<defs>
		<rect id="SVGID_1_" width="512" height="512"/>
	</defs>
	<clipPath id="SVGID_2_">
		<use xlink:href="#SVGID_1_"  style="overflow:visible;"/>
	</clipPath>
	<path style="clip-path:url(#SVGID_2_);fill:#333333;" d="M257,485.875c-9.941,0-18-8.059-18-18s8.059-18,18-18
		c9.941,0,18,8.059,18,18S266.941,485.875,257,485.875z M227,21h60v14h-60V21z M387,357.743V434H126V48h261v80.515
		c9.416,6.712,17.837,14.732,25,23.791V27.946C412,16.93,403.07,8,392.054,8H120.946C109.93,8,101,16.93,101,27.946v452.108
		C101,491.07,109.93,500,120.946,500h271.108C403.07,500,412,491.07,412,480.054v-97.043L387,357.743z"/>
</g>
<g>
	<defs>
		<rect id="SVGID_3_" width="512" height="512"/>
	</defs>
	<clipPath id="SVGID_4_">
		<use xlink:href="#SVGID_3_"  style="overflow:visible;"/>
	</clipPath>
	<path style="clip-path:url(#SVGID_4_);fill:#333333;" d="M228.225,227.587c0-48.802,39.561-88.363,88.363-88.363
		c48.801,0,88.363,39.561,88.363,88.363c0,48.801-39.562,88.363-88.363,88.363C267.786,315.95,228.225,276.389,228.225,227.587z
		 M485.147,357.096l-51.467-52.019c-6.254-6.254-16.264-6.462-22.769-0.625l-10.732-10.732
		c14.397-18.172,22.997-41.147,22.997-66.132c0-58.867-47.721-106.588-106.588-106.588S210,168.721,210,227.587
		s47.721,106.588,106.588,106.588c25.126,0,48.217-8.699,66.438-23.243l10.723,10.723c-5.571,6.509-5.281,16.312,0.88,22.472
		l51.467,52.019c6.47,6.47,16.961,6.47,23.431,0l15.62-15.62C491.618,374.057,491.618,363.566,485.147,357.096z"/>
</g>
</svg>
